<svg xmlns="http://www.w3.org/2000/svg" data-name="Flat Gradient" viewBox="0 0 64 64"><defs><linearGradient id="a" x1="4" x2="60" y1="32" y2="32" gradientUnits="userSpaceOnUse"><stop offset="0" stop-color="#00c0ff"/><stop offset="1" stop-color="#5558ff"/></linearGradient></defs><path fill="url(#a)" d="m43.52043,36.40005h9.99975v3.99999h-9.99975v-3.99999Zm16.47957-2.35998v21.95994c0,2.20995-1.78993,3.99999-3.9999,3.99999h-14.9696c-2.20997,0-3.9999-1.79003-3.9999-3.99999v-21.95994c0-2.21001,1.78993-3.99999,3.9999-3.99999h14.9696c2.20997,0,3.9999,1.78997,3.9999,3.99999Zm-17.23952,19.71996c-1.31349.02499-1.31369,1.97477-.00004,1.99999,1.31345-.02504,1.31364-1.97481.00004-1.99999Zm0-4.49998c-1.31477.02463-1.3136,1.98177-.00004,1.99999,1.31337-.01803,1.31492-1.97518.00004-1.99999Zm0-4.49003c-1.3135.02503-1.31368,1.97481-.00004,1.99999,1.31345-.025,1.31365-1.97477.00004-1.99999Zm5.75986,8.99002c-1.3156.01971-1.31578,1.98006-.00004,1.99999,1.31345-.02504,1.31364-1.97481.00004-1.99999Zm0-4.49998c-1.31689.01936-1.31567,1.98704-.00004,1.99999,1.31337-.01803,1.31492-1.97518.00004-1.99999Zm0-4.49003c-1.31561.01975-1.31577,1.98011-.00004,1.99999,1.31345-.025,1.31364-1.97477.00004-1.99999Zm5.74986,8.99002c-1.3135.02496-1.3137,1.9748-.00004,1.99999,1.31345-.02504,1.31364-1.97481.00004-1.99999Zm0-4.49998c-1.31478.02459-1.31361,1.9818-.00004,1.99999,1.31337-.01803,1.31492-1.97518.00004-1.99999Zm0-4.49003c-1.31351.025-1.31369,1.97484-.00004,1.99999,1.31345-.025,1.31365-1.97477.00004-1.99999Zm1.24993-9.36996c0-.54999-.45-1-.99998-1h-11.9997c-.55998,0-.99998.45001-.99998,1v5.99998c0,.56.43999,1,.99998,1h11.9997c.54997,0,.99998-.44.99998-1v-5.99998Zm-7.51983-7.35996v-1.53997c0-2.42004-1.71993-4.43999-3.9999-4.90001v-3.09996c0-2.76-2.23993-4.99998-4.99988-4.99998.06707.59294.3208,1.35245.3699,2.02998,1.48003.17997,2.63002,1.44999,2.63002,2.97v2.99999c-.19358-.00797-32.78444.01771-32.94888-.00998-2.57198-.07734-4.09614-3.22326-2.18014-5.11002.48987-.48001,1.10985-.78,1.76987-.86002.08996-.69.21997-1.35998.39995-2.01995-2.68068-.08622-5.10932,2.32213-5.03979,5.01005-.00006-.00005-.00006,29.98983-.00006,29.98983,0,2.76,2.23993,4.99998,4.99988,4.99998h26.02938v-19.45995c0-3.30999,2.68987-5.99998,5.99985-5.99998h6.9698ZM14.69113,19.50014c-1.98613-9.06317,9.47265-15.39236,16.01969-8.71984,2.50982,2.48982,3.19981,5.75982,2.54986,8.71984h4.04989c.09997-.63.15997-1.29003.19-1.98003.05289-7.25867-6.01417-13.56539-13.4997-13.51986-6.86812-.02277-12.57192,5.23842-13.37961,11.79992-.19073,1.19705-.11969,2.52915.07,3.69998-.00002,0,3.99988,0,3.99988,0Zm16.55959,0c1.36211-4.56008-2.44593-9.63813-7.24992-9.4899-4.94979-.12005-8.5197,4.9699-7.25973,9.4899h8.2598c.09002-.10004.14001-.23999.14001-.38-.02002-.85003-1.13999-.54999-1.67-.60003-3.1699-.06-3.53989-4.56993-.46996-5.16996-.16998-1.58996,2.11994-1.64001,1.99995-.03998h1.13999c1.30996.01996,1.31997,1.97997,0,1.99999h-2.66998c-.79997.01001-.79997,1.20001,0,1.20996h1.06003c1.84993.03003,2.74993,1.58001,2.55993,2.98003h4.15987Z"/></svg>